<svg xmlns="http://www.w3.org/2000/svg" width="24" height="24" viewBox="0 0 24 24" fill="none" stroke="currentColor" stroke-width="2" stroke-linecap="round" stroke-linejoin="round">
  <path d="M19.439 7.85c-.049.322.059.648.289.878l1.568 1.568c.47.47.706 1.087.706 1.704s-.235 1.233-.706 1.704l-1.611 1.611a.98.98 0 0 1-.837.276c-.47-.07-.802-.48-.743-.935.054-.395.073-.792.067-1.19l-.003-.132a6.4 6.4 0 0 0-12.34.092c-.011.398-.003.795.046 1.192.062.422-.254.792-.685.866a.91.91 0 0 1-.839-.276L2.705 13.7A2.41 2.41 0 0 1 2 12c0-.617.236-1.234.706-1.704L4.274 8.73a.98.98 0 0 1 .837-.276c.47.07.802.48.743.935l-.006.042a7.13 7.13 0 0 0-.016 1.136l.003.132a6.4 6.4 0 0 0 12.34-.093c.017-.483.003-.953-.067-1.416a.85.85 0 0 1 .33-.906z"/>
</svg>
